<svg class="svg-icon" viewBox="0 0 20 20"><path d="M17.283 5.549h-5.26V4.335a.406.406 0 00-.404-.404H8.381a.405.405 0 00-.404.404v1.214h-5.26a.406.406 0 00-.405.405v9.71c0 .223.182.405.405.405h14.566a.406.406 0 00.404-.405v-9.71a.404.404 0 00-.404-.405M8.786 4.74h2.428v.809H8.786V4.74zm8.093 10.52H3.122v-4.046h5.665v1.201c0 .223.182.404.405.404h1.618a.406.406 0 00.405-.404v-1.201h5.665v4.046zM9.595 9.583h.81v2.428h-.81V9.583zm7.284.822h-5.665V9.19a.407.407 0 00-.405-.405H9.191a.407.407 0 00-.405.405v1.215H3.122V6.358h13.757v4.047z"/></svg>