<svg class="svg-icon" viewBox="0 0 20 20"><path d="M15.94 10.179l-2.437-.325 1.62-7.379a.382.382 0 00-.372-.458H5.25a.383.383 0 00-.373.458l1.634 7.376-2.451.328a.379.379 0 00-.214.649l2.864 2.759-.724 3.947a.381.381 0 00.559.401l3.457-1.916 3.456 1.916c-.419-.238.56.439.56-.401l-.725-3.947 2.863-2.759a.379.379 0 00-.216-.649m-5.559-7.401h3.902l-1.536 6.977-.711-.095-1.655-3.546V2.778zm-4.664 0H9.62v3.335L7.965 9.66l-.697.093-1.551-6.975zm6.901 10.404a.377.377 0 00-.11.343l.615 3.356-2.938-1.629a.404.404 0 00-.184-.048.404.404 0 00-.185.048l-2.938 1.629.616-3.356a.385.385 0 00-.11-.343l-2.441-2.354 3.329-.441a.384.384 0 00.295-.215l1.435-3.073 1.435 3.073a.384.384 0 00.294.215l3.329.441-2.442 2.354z"/></svg>