<svg class="svg-icon" viewBox="0 0 20 20"><path fill="none" d="M18.258 3.266a7.254 7.254 0 01-2.277.857 3.607 3.607 0 00-2.618-1.115c-1.98 0-3.586 1.581-3.586 3.53 0 .276.031.545.092.805a10.24 10.24 0 01-7.393-3.689 3.469 3.469 0 00-.486 1.775c0 1.224.633 2.305 1.596 2.938a3.611 3.611 0 01-1.625-.442l-.001.045c0 1.71 1.237 3.138 2.877 3.462a3.67 3.67 0 01-1.619.061 3.584 3.584 0 003.35 2.451 7.268 7.268 0 01-4.454 1.512c-.291 0-.575-.016-.855-.049 1.588 1 3.473 1.586 5.498 1.586 6.598 0 10.205-5.379 10.205-10.045 0-.153-.003-.305-.01-.456a7.273 7.273 0 001.789-1.827 7.31 7.31 0 01-2.06.555 3.554 3.554 0 001.577-1.954"/></svg>