<svg class="svg-icon" viewBox="0 0 20 20"><path d="M14.68 12.621c-.9 0-1.702.43-2.216 1.09l-4.549-2.637a2.81 2.81 0 000-2.146l4.549-2.638a2.804 2.804 0 005.025-1.718 2.813 2.813 0 00-2.809-2.809 2.812 2.812 0 00-2.594 3.882l-4.55 2.638a2.807 2.807 0 00-2.217-1.09c-1.548 0-2.808 1.26-2.808 2.809s1.26 2.808 2.808 2.808c.9 0 1.702-.43 2.217-1.09l4.55 2.637a2.812 2.812 0 002.594 3.883c1.549 0 2.809-1.26 2.809-2.809s-1.26-2.81-2.809-2.81m0-10.109c1.136 0 2.06.923 2.06 2.06a2.06 2.06 0 01-4.119-.001 2.06 2.06 0 012.059-2.059m-9.361 9.549a2.06 2.06 0 112.06-2.06c0 1.136-.925 2.06-2.06 2.06m9.361 5.427a2.06 2.06 0 11.002-4.12 2.06 2.06 0 01-.002 4.12"/></svg>