<svg class="svg-icon" viewBox="0 0 20 20"><path fill="none" d="M12.443 9.672a4.349 4.349 0 00.329-1.652c0-1.969-1.241-3.565-2.772-3.565S7.228 6.051 7.228 8.02c0 .599.126 1.156.33 1.652-1.379.555-2.31 1.553-2.31 2.704 0 1.75 2.128 3.169 4.753 3.169 2.624 0 4.753-1.419 4.753-3.169-.001-1.151-.933-2.149-2.311-2.704zM10 5.247c1.094 0 1.98 1.242 1.98 2.773 0 1.531-.887 2.772-1.98 2.772S8.02 9.551 8.02 8.02c0-1.531.886-2.773 1.98-2.773zm0 9.506c-2.187 0-3.96-1.063-3.96-2.377 0-.854.757-1.596 1.885-2.015.508.745 1.245 1.224 2.076 1.224s1.567-.479 2.076-1.224c1.127.418 1.885 1.162 1.885 2.015-.001 1.313-1.774 2.377-3.962 2.377zM10 .891a9.11 9.11 0 100 18.219A9.11 9.11 0 0010 .89zm0 17.426a8.318 8.318 0 010-16.634 8.317 8.317 0 010 16.634z"/></svg>