<svg class="z-0 lg:absolute pin-r pin-b w-1/2 lg:opacity-25 xl:opacity-100 lg:w-auto" width="600" height="385" viewBox="0 0 398 257" xmlns="http://www.w3.org/2000/svg"><g transform="translate(1 1)" fill="none" fill-rule="evenodd"><path d="M20.727 201.955h354.546m-375 0h11.363m372.728 0h11.363" stroke="#282828" stroke-width="2" stroke-linecap="round" stroke-linejoin="round"/><path d="M81.827 60.41h212.346a3.6 3.6 0 013.6 3.6v125.8a3.6 3.6 0 01-3.6 3.6H81.827a3.6 3.6 0 01-3.6-3.6V64.008a3.6 3.6 0 013.6-3.6z" fill="#F5DDDC" fill-rule="nonzero"/><path d="M211 60.41H78.227v132.772L211 60.409z" fill="#FFF" fill-rule="nonzero"/><rect stroke="#282828" stroke-width="2" stroke-linecap="round" stroke-linejoin="round" x="78.227" y="60.409" width="219.545" height="133" rx="3.6"/><path d="M278.955 217.227A18.818 18.818 0 00298 198.41v-6.273H78.227v6.273c0 10.393 8.425 18.818 18.818 18.818h181.91z" stroke="#282828" stroke-width="2" fill="#FFF" fill-rule="nonzero" stroke-linecap="round" stroke-linejoin="round"/><path fill="#FFF" fill-rule="nonzero" d="M206.818 242.318h-37.636l3.136-25.09h31.364z"/><path stroke="#282828" stroke-width="2" stroke-linecap="round" stroke-linejoin="round" d="M206.818 242.318h-37.636l3.136-25.09h31.364z"/><path d="M228.773 254.864h-81.546c0-6.929 5.617-12.546 12.546-12.546h56.409c6.936 0 12.566 5.61 12.59 12.546h0zM128.41 38.455h181.817v108.272c0 6.025-4.884 10.91-10.909 10.91h-160c-6.025 0-10.909-4.885-10.909-10.91V38.455zM139.318.818H299.41c6.025 0 10.91 4.884 10.91 10.91v26.727H128.5V11.727c0-5.99 4.829-10.859 10.818-10.909z" stroke="#282828" stroke-width="2" fill="#FFF" fill-rule="nonzero" stroke-linecap="round" stroke-linejoin="round"/><circle stroke="#282828" stroke-width="2" fill="#F5DDDC" fill-rule="nonzero" stroke-linecap="round" stroke-linejoin="round" cx="147.227" cy="19.636" r="6.273"/><circle stroke="#282828" stroke-width="2" fill="#F5DDDC" fill-rule="nonzero" stroke-linecap="round" stroke-linejoin="round" cx="172.318" cy="19.636" r="6.273"/><circle stroke="#282828" stroke-width="2" fill="#F5DDDC" fill-rule="nonzero" stroke-linecap="round" stroke-linejoin="round" cx="197.409" cy="19.636" r="6.273"/><rect stroke="#282828" stroke-width="2" fill="#F5DDDC" fill-rule="nonzero" stroke-linecap="round" stroke-linejoin="round" x="184.864" y="76.091" width="25.091" height="25.091" rx="1"/><rect stroke="#282828" stroke-width="2" fill="#F5DDDC" fill-rule="nonzero" stroke-linecap="round" stroke-linejoin="round" x="225.636" y="76.091" width="25.091" height="25.091" rx="1"/><rect stroke="#282828" stroke-width="2" fill="#F5DDDC" fill-rule="nonzero" stroke-linecap="round" stroke-linejoin="round" x="266.409" y="76.091" width="25.091" height="25.091" rx="1"/><rect stroke="#282828" stroke-width="2" fill="#F5DDDC" fill-rule="nonzero" stroke-linecap="round" stroke-linejoin="round" x="184.864" y="113.727" width="25.091" height="25.091" rx="1"/><rect stroke="#282828" stroke-width="2" fill="#F5DDDC" fill-rule="nonzero" stroke-linecap="round" stroke-linejoin="round" x="225.636" y="113.727" width="25.091" height="25.091" rx="1"/><rect stroke="#282828" stroke-width="2" fill="#F5DDDC" fill-rule="nonzero" stroke-linecap="round" stroke-linejoin="round" x="266.409" y="113.727" width="25.091" height="25.091" rx="1"/><rect stroke="#282828" stroke-width="2" fill="#F5DDDC" fill-rule="nonzero" stroke-linecap="round" stroke-linejoin="round" x="147.227" y="51" width="25.091" height="12.545" rx="1"/><rect stroke="#282828" stroke-width="2" fill="#F5DDDC" fill-rule="nonzero" stroke-linejoin="round" x="184.864" y="51" width="106.636" height="12.545" rx="1"/><path d="M147.227 76.09h25.091m-25.091 12.546h25.091m-25.091 12.546h25.091m-25.091 12.545h25.091m-25.091 12.546h25.091m-25.091 12.545h15.682" stroke="#282828" stroke-width="2" stroke-linecap="round" stroke-linejoin="round"/><path d="M351.09 207.5c-.908 3.318-2.726 3.41-4.045 0l-20.59-49.136c-1.319-3.182 0-4.546 3.409-3.364l49.363 20.545c3.182 1.364 3.046 3.182-.272 4.091l-15.819 4.546a12.273 12.273 0 00-7.727 7.682l-4.318 15.636z" stroke="#282828" stroke-width="2" fill="#FFF" fill-rule="nonzero" stroke-linejoin="round"/><circle stroke="#282828" stroke-width="2" stroke-linecap="round" stroke-linejoin="round" cx="188" cy="204.682" r="2.636"/></g></svg>